<?xml version="1.0" encoding="utf-8"?>
<!-- Generator: Adobe Illustrator 18.1.1, SVG Export Plug-In . SVG Version: 6.00 Build 0)  -->
<svg version="1.1" id="Layer_1" xmlns:sketch="http://www.bohemiancoding.com/sketch/ns"
	 xmlns="http://www.w3.org/2000/svg" xmlns:xlink="http://www.w3.org/1999/xlink" x="0px" y="0px"
	 viewBox="116.6 175.5 382.7 452.5" enable-background="new 116.6 175.5 382.7 452.5" xml:space="preserve">
<title>ng-conf-logo-fullcolor-vertical-lightbg</title>
<desc>Created with Sketch.</desc>
<rect x="276.8" y="577.2" fill="none" width="213.6" height="39.4"/>
<g enable-background="new    ">
	<path fill="#7A7A7A" d="M303.4,578.2v4h-17.4v12h14v3.8h-14v12.3h17.4v4h-22.3v-36.1H303.4z"/>
	<path fill="#7A7A7A" d="M315.7,601.3l-8.6-12.5h4.3c0.4,0,0.6,0.1,0.8,0.2c0.2,0.1,0.3,0.3,0.5,0.5l6.3,9.6
		c0.2-0.5,0.4-0.9,0.7-1.4l5.5-8.1c0.2-0.2,0.3-0.4,0.5-0.6c0.2-0.1,0.4-0.2,0.6-0.2h4.1l-8.6,12.2l9,13.3h-4.3
		c-0.4,0-0.7-0.1-0.9-0.3c-0.2-0.2-0.4-0.4-0.5-0.6l-6.4-10c-0.1,0.5-0.3,0.9-0.5,1.3l-6,8.7c-0.2,0.2-0.3,0.5-0.5,0.6
		c-0.2,0.2-0.5,0.3-0.8,0.3h-4L315.7,601.3z"/>
	<path fill="#7A7A7A" d="M342.9,614.8c-2,0-3.6-0.6-4.7-1.7s-1.6-2.8-1.6-4.9v-15.6h-3.1c-0.3,0-0.5-0.1-0.7-0.2
		c-0.2-0.2-0.3-0.4-0.3-0.7v-1.8l4.2-0.5l1-7.9c0-0.3,0.1-0.5,0.3-0.6c0.2-0.2,0.4-0.2,0.7-0.2h2.3v8.8h7.3v3.3h-7.3v15.3
		c0,1.1,0.3,1.9,0.8,2.4c0.5,0.5,1.2,0.8,2,0.8c0.5,0,0.9-0.1,1.2-0.2c0.3-0.1,0.6-0.3,0.9-0.4c0.3-0.2,0.5-0.3,0.6-0.4
		s0.3-0.2,0.5-0.2c0.2,0,0.4,0.1,0.6,0.4l1.3,2.1c-0.8,0.7-1.7,1.3-2.8,1.7C345.2,614.6,344.1,614.8,342.9,614.8z"/>
	<path fill="#7A7A7A" d="M364.1,588.4c1.5,0,2.9,0.3,4.2,0.8s2.4,1.3,3.4,2.2c0.9,1,1.7,2.2,2.2,3.6c0.5,1.4,0.8,3,0.8,4.9
		c0,0.7-0.1,1.2-0.2,1.4s-0.4,0.4-0.9,0.4h-17c0,1.6,0.3,3,0.7,4.2c0.4,1.2,1,2.2,1.7,3c0.7,0.8,1.5,1.4,2.5,1.8
		c1,0.4,2.1,0.6,3.3,0.6c1.1,0,2.1-0.1,2.9-0.4s1.5-0.5,2.1-0.8s1.1-0.6,1.5-0.8s0.7-0.4,1-0.4c0.4,0,0.7,0.1,0.9,0.4l1.3,1.6
		c-0.6,0.7-1.2,1.3-2,1.8c-0.8,0.5-1.6,0.9-2.5,1.2s-1.8,0.6-2.7,0.7c-0.9,0.2-1.9,0.2-2.8,0.2c-1.8,0-3.4-0.3-4.9-0.9
		s-2.8-1.5-3.9-2.6c-1.1-1.2-1.9-2.6-2.5-4.3c-0.6-1.7-0.9-3.6-0.9-5.9c0-1.8,0.3-3.4,0.8-5c0.5-1.5,1.3-2.9,2.4-4
		c1-1.1,2.3-2,3.8-2.7C360.6,588.8,362.3,588.4,364.1,588.4z M364.2,591.7c-2.2,0-3.9,0.6-5.1,1.9c-1.2,1.3-2,3-2.3,5.2h13.9
		c0-1-0.1-2-0.4-2.9s-0.7-1.6-1.3-2.2c-0.6-0.6-1.2-1.1-2-1.5S365.2,591.7,364.2,591.7z"/>
	<path fill="#7A7A7A" d="M380.4,614.4v-25.6h2.7c0.6,0,1,0.3,1.2,0.9l0.4,2.8c1.1-1.2,2.3-2.2,3.7-3c1.4-0.8,3-1.1,4.8-1.1
		c1.4,0,2.6,0.2,3.7,0.7c1.1,0.5,2,1.1,2.7,2c0.7,0.8,1.3,1.9,1.6,3.1c0.4,1.2,0.6,2.5,0.6,4v16.3h-4.5v-16.3c0-1.9-0.4-3.4-1.3-4.5
		c-0.9-1.1-2.2-1.6-4-1.6c-1.3,0-2.6,0.3-3.7,1c-1.2,0.6-2.2,1.5-3.2,2.6v18.8H380.4z"/>
	<path fill="#7A7A7A" d="M426.5,614.4c-0.6,0-1-0.3-1.2-0.9l-0.4-3.1c-1.1,1.3-2.3,2.4-3.7,3.2c-1.4,0.8-3,1.2-4.8,1.2
		c-1.5,0-2.8-0.3-4-0.8c-1.2-0.6-2.2-1.4-3.1-2.5c-0.8-1.1-1.5-2.5-1.9-4.1s-0.7-3.5-0.7-5.6c0-1.9,0.3-3.6,0.8-5.3
		c0.5-1.6,1.2-3,2.2-4.2c0.9-1.2,2.1-2.1,3.5-2.8c1.4-0.7,2.9-1,4.6-1c1.6,0,2.9,0.3,4,0.8c1.1,0.5,2.1,1.3,3,2.2v-14.2h4.5v37.2
		H426.5z M417.8,611.1c1.5,0,2.7-0.3,3.8-1c1.1-0.7,2.1-1.6,3-2.9v-12.4c-0.8-1.1-1.7-1.9-2.7-2.3s-2.1-0.7-3.3-0.7
		c-2.4,0-4.2,0.8-5.5,2.5c-1.3,1.7-1.9,4.1-1.9,7.3c0,1.7,0.1,3.1,0.4,4.3s0.7,2.2,1.3,2.9c0.6,0.8,1.2,1.3,2,1.7
		C415.8,610.9,416.7,611.1,417.8,611.1z"/>
	<path fill="#7A7A7A" d="M446.8,588.4c1.5,0,2.9,0.3,4.2,0.8s2.4,1.3,3.4,2.2c0.9,1,1.7,2.2,2.2,3.6c0.5,1.4,0.8,3,0.8,4.9
		c0,0.7-0.1,1.2-0.2,1.4s-0.4,0.4-0.9,0.4h-17c0,1.6,0.3,3,0.7,4.2c0.4,1.2,1,2.2,1.7,3c0.7,0.8,1.5,1.4,2.5,1.8
		c1,0.4,2.1,0.6,3.3,0.6c1.1,0,2.1-0.1,2.9-0.4s1.5-0.5,2.1-0.8s1.1-0.6,1.5-0.8s0.7-0.4,1-0.4c0.4,0,0.7,0.1,0.9,0.4l1.3,1.6
		c-0.6,0.7-1.2,1.3-2,1.8c-0.8,0.5-1.6,0.9-2.5,1.2s-1.8,0.6-2.7,0.7c-0.9,0.2-1.9,0.2-2.8,0.2c-1.8,0-3.4-0.3-4.9-0.9
		s-2.8-1.5-3.9-2.6c-1.1-1.2-1.9-2.6-2.5-4.3c-0.6-1.7-0.9-3.6-0.9-5.9c0-1.8,0.3-3.4,0.8-5c0.5-1.5,1.3-2.9,2.4-4
		c1-1.1,2.3-2,3.8-2.7C443.3,588.8,445,588.4,446.8,588.4z M446.9,591.7c-2.2,0-3.9,0.6-5.1,1.9c-1.2,1.3-2,3-2.3,5.2h13.9
		c0-1-0.1-2-0.4-2.9s-0.7-1.6-1.3-2.2c-0.6-0.6-1.2-1.1-2-1.5S447.9,591.7,446.9,591.7z"/>
	<path fill="#7A7A7A" d="M481.1,614.4c-0.6,0-1-0.3-1.2-0.9l-0.4-3.1c-1.1,1.3-2.3,2.4-3.7,3.2c-1.4,0.8-3,1.2-4.8,1.2
		c-1.5,0-2.8-0.3-4-0.8c-1.2-0.6-2.2-1.4-3.1-2.5c-0.8-1.1-1.5-2.5-1.9-4.1s-0.7-3.5-0.7-5.6c0-1.9,0.3-3.6,0.8-5.3
		c0.5-1.6,1.2-3,2.2-4.2c0.9-1.2,2.1-2.1,3.5-2.8c1.4-0.7,2.9-1,4.6-1c1.6,0,2.9,0.3,4,0.8c1.1,0.5,2.1,1.3,3,2.2v-14.2h4.5v37.2
		H481.1z M472.4,611.1c1.5,0,2.7-0.3,3.8-1c1.1-0.7,2.1-1.6,3-2.9v-12.4c-0.8-1.1-1.7-1.9-2.7-2.3s-2.1-0.7-3.3-0.7
		c-2.4,0-4.2,0.8-5.5,2.5c-1.3,1.7-1.9,4.1-1.9,7.3c0,1.7,0.1,3.1,0.4,4.3s0.7,2.2,1.3,2.9c0.6,0.8,1.2,1.3,2,1.7
		C470.4,610.9,471.4,611.1,472.4,611.1z"/>
</g>
<g id="logos-color_9_" sketch:type="MSPage">
	<g id="ng-conf-logo-fullcolor-vertical-lightbg_9_" sketch:type="MSArtboardGroup">
		<g id="ng-conf-vertical_9_" transform="translate(242.000000, 242.000000)" sketch:type="MSLayerGroup">
			<g id="ng-conf-logotype_9_" transform="translate(0.000000, 526.000000)" sketch:type="MSShapeGroup">
				<path id="n_19_" fill="#515151" d="M-101.7-316.8c0,0-23.7,5.3-23.7,11.7v71c0,1.1,8.3,2.1,8.3,2.1s8.3-1,8.3-2.1v-64.5
					c0-1.8,7-3.5,7-3.5s7,1.7,7,3.6v64.4c0,1.1,8.3,2.1,8.3,2.1s8.3-1,8.3-2.1v-71C-78-311.5-101.7-316.8-101.7-316.8z"/>
				<path id="g_9_" fill="#515151" d="M-31.3-255.2v-9.1c9-1.7,15.3-6,15.3-11.1V-305c0-6.5-23.7-11.8-23.7-11.8
					s-23.7,5.3-23.7,11.8v29.6c0,5.2,6.3,9.5,15.3,11.1v9.1c-9,1.7-15.3,6-15.3,11v29.6c0,6.6,23.7,12,23.7,12s23.7-5.3,23.7-12
					v-29.6C-15.9-249.2-22.2-253.5-31.3-255.2z M-39.6-216.4c0,0-7.1-1.7-7.1-3.8v-17.2c0-1.9,7.1-3.6,7.1-3.6s7.1,1.7,7.1,3.6v17.4
					C-32.5-218.1-39.6-216.4-39.6-216.4z M-39.6-277.1c0,0-7.1-1.7-7.1-3.6V-298c0-1.9,7.1-3.6,7.1-3.6s7.1,1.7,7.1,3.8v17.2
					C-32.5-278.8-39.6-277.1-39.6-277.1z"/>
				<path id="dash_9_" fill="#515151" d="M23-278H0.5c-0.6,0-1.7,7-1.7,7s1.1,7.2,1.7,7.2H23c0.6,0,1.8-7,1.8-7S23.6-278,23-278z"/>
				<path id="c_9_" fill="#515151" d="M78.5-260.3c0,0-8.3,1-8.3,2v9.7c0,2-7,3.6-7,3.6s-7-1.7-7-3.5v-50c0-1.8,7-3.5,7-3.5
					s7,1.7,7,3.6v9.7c0,1,8.3,2,8.3,2s8.3-1,8.3-2v-16.3c0-6.5-23.7-11.8-23.7-11.8s-23.7,5.4-23.7,11.8v63
					c0,6.5,23.7,11.8,23.7,11.8s23.7-5.4,23.7-11.8v-16.3C86.9-259.3,78.5-260.3,78.5-260.3z"/>
				<path id="o_9_" fill="#515151" d="M124.8-316.8c0,0-23.7,5.4-23.7,11.8v63c0,6.5,23.7,11.8,23.7,11.8s23.7-5.4,23.7-11.8v-63
					C148.4-311.5,124.8-316.8,124.8-316.8z M124.8-245.8c0,0-7.1-1.7-7.1-3.5v-49.9c0-1.8,7.1-3.5,7.1-3.5s7.1,1.7,7.1,3.6v49.7
					C131.9-247.4,124.8-245.8,124.8-245.8z"/>
				<path id="n_18_" fill="#515151" d="M186.8-316.8c0,0-23.7,5.3-23.7,11.7v71c0,1.1,8.3,2.1,8.3,2.1s8.3-1,8.3-2.1v-64.5
					c0-1.8,7-3.5,7-3.5s7,1.7,7,3.6v64.4c0,1.1,8.3,2.1,8.3,2.1s8.3-1,8.3-2.1v-71C210.5-311.5,186.8-316.8,186.8-316.8z"/>
				<path id="f_9_" fill="#515151" d="M255.4-314.9h-13.9v-10.1c0,0,3.2-3.6,7-3.6h7c1,0,2-7.3,2-7.3s-1-7.3-2-7.3h-7
					c-12.9,0-23.5,11.8-23.5,11.8v16.6h-8.3c-1,0-1.8,7.3-1.8,7.3s0.9,7.5,1.8,7.5h8.3v66.9c0,1.2,8.3,2.2,8.3,2.2s8.3-1,8.3-2.2
					v-66.9h13.9c1,0,2-7.3,2-7.3S256.4-314.9,255.4-314.9z"/>
			</g>
			<g id="ng-conf-icon_9_" transform="translate(158.000000, 0.000000)" sketch:type="MSShapeGroup">
				<path id="Path_39_" fill="#F4B400" d="M-99.4,139.8l-66.4-36.5L-178.2,0.7l-30.3-21.2l17.1,142.3l91.9,50.3V139.8z"/>
				<path id="Path_38_" fill="#0F9D58" d="M-91.4,171.8v-32.2l66-36.2L-13,0.6l30.3-21.2L0.1,121.8L-91.4,171.8z"/>
				<path id="Path_37_" fill="#4285F4" d="M-203.3-28.5l30.2,21.1l77.5-27.4l77.4,27.3L12-28.6L-95.5-66.5L-203.3-28.5z"/>
				<path id="Path_36_" fill="#DB4437" d="M-33.5,98.3l-62.1,34.1l-62.1-33.6l-11.8-97.1l73.9-26.1l73.9,26.1L-33.5,98.3z"/>
				<path id="logo-shape_9_" fill="#FFFFFF" d="M-127.8,97.4H-147l51.4-114.2l53.2,114.2h-17.8l-11.3-26.1h-46.1L-127.8,97.4z
					 M-95.6,19.8l-15.2,35.9h32.7L-95.6,19.8z"/>
			</g>
		</g>
	</g>
</g>
</svg>
